<svg width="89" height="28" viewBox="0 0 89 28" fill="none" xmlns="http://www.w3.org/2000/svg">
<path d="M5.46068 16.3772H12.379V20.4048H0V16.5215L6.63415 8.49812H0.0563462V4.47051H12.2369V8.35376L5.46068 16.3772ZM17.5261 13.6073C17.6021 14.5983 17.9205 15.3544 18.484 15.878C19.045 16.4016 19.7359 16.6635 20.5566 16.6635C21.7766 16.6635 22.6242 16.1496 23.1019 15.1219H28.3054C28.0383 16.1692 27.5582 17.1112 26.8624 17.9481C26.1667 18.7849 25.2945 19.4432 24.246 19.9179C23.1975 20.395 22.0265 20.6324 20.7305 20.6324C19.1675 20.6324 17.776 20.2996 16.556 19.634C15.336 18.9685 14.383 18.0166 13.697 16.7785C13.0111 15.5403 12.6681 14.0942 12.6681 12.4376C12.6681 10.7811 13.0062 9.33497 13.6823 8.09683C14.3585 6.85869 15.3066 5.90685 16.5266 5.24129C17.7466 4.57573 19.1479 4.2405 20.7305 4.2405C22.3131 4.2405 23.6458 4.56349 24.8487 5.21192C26.0491 5.86035 26.9874 6.78284 27.666 7.98183C28.3421 9.18081 28.6802 10.5804 28.6802 12.1807C28.6802 12.6383 28.6508 13.113 28.5945 13.6073H17.5261ZM23.6727 10.8937C23.6727 10.0568 23.3861 9.3888 22.8153 8.89452C22.2445 8.40025 21.5291 8.15311 20.6717 8.15311C19.8142 8.15311 19.1601 8.39046 18.5991 8.86761C18.0357 9.34476 17.6878 10.0201 17.5555 10.8961H23.6727V10.8937ZM36.6814 4.92563C37.5192 4.46806 38.5016 4.2405 39.6261 4.2405C40.9416 4.2405 42.1322 4.57328 43.2004 5.24129C44.2685 5.90685 45.1112 6.85869 45.731 8.09683C46.3508 9.33497 46.6595 10.7713 46.6595 12.4083C46.6595 14.0453 46.3484 15.4865 45.731 16.7344C45.1112 17.9823 44.2685 18.944 43.2004 19.6193C42.1322 20.2947 40.9416 20.6324 39.6261 20.6324C38.5212 20.6324 37.5437 20.4048 36.696 19.9472C35.8484 19.4896 35.1845 18.8999 34.7092 18.1781V28H29.8194V4.46806H34.7092V6.72411C35.1845 5.98025 35.8435 5.38076 36.6814 4.92563ZM40.6697 9.53806C39.9935 8.84314 39.1581 8.49568 38.1684 8.49568C37.1787 8.49568 36.3727 8.84803 35.6941 9.55274C35.0179 10.2575 34.6798 11.2191 34.6798 12.4376C34.6798 13.6562 35.0179 14.6178 35.6941 15.3226C36.3702 16.0273 37.1958 16.3796 38.1684 16.3796C39.141 16.3796 39.969 16.0224 40.655 15.3079C41.3409 14.5934 41.6839 13.6268 41.6839 12.4107C41.6839 11.1946 41.3458 10.2354 40.6697 9.54051V9.53806Z" fill="#444545"/>
<path d="M86.0627 0H52.2501C50.6278 0 49.3127 1.31353 49.3127 2.93385V20.8012C49.3127 22.4215 50.6278 23.735 52.2501 23.735H86.0627C87.6849 23.735 89 22.4215 89 20.8012V2.93385C89 1.31353 87.6849 0 86.0627 0Z" fill="url(#paint0_linear_3703_71594)"/>
<path d="M52.2396 8.25098C52.416 5.82365 54.2583 4.41423 56.8845 4.41423C59.6479 4.41423 61.157 6.0194 61.157 8.05523C61.157 9.67998 60.1379 10.9524 58.6484 11.2852V11.383C60.2947 11.7745 61.4118 12.9882 61.4118 15.024C61.4118 17.2165 59.8831 18.9391 56.9237 18.9391C54.2387 18.9391 52.2396 17.5101 52.024 14.7696H53.7487C53.9251 16.2768 55.0226 17.4318 56.9041 17.4318C58.8052 17.4318 59.7067 16.316 59.7067 14.8674C59.7067 12.8707 58.3152 12.1073 55.7674 12.1073H55.3166V10.6196H55.787C58.1584 10.6 59.4323 9.87573 59.4323 8.23141C59.4323 6.88071 58.5308 5.9411 56.8257 5.9411C55.1598 5.9411 54.1603 6.88071 53.9839 8.25098H52.2396Z" fill="white"/>
<path d="M73.3644 8.05523H71.7181C71.4437 6.68496 70.6402 5.88237 69.0331 5.88237C66.7792 5.88237 65.5641 7.42882 65.5837 11.6375C66.1913 10.2477 67.7396 9.46465 69.4251 9.46465C72.0709 9.46465 73.8544 11.2068 73.8544 14.1823C73.8544 16.7662 72.3257 18.8804 69.2291 18.8804C65.035 18.8804 64.0354 15.8658 64.0354 11.5788C64.0354 7.13519 65.4661 4.39465 69.0527 4.39465C71.7573 4.39465 73.1292 6.07812 73.3644 8.05523ZM69.0527 10.9719C67.426 10.9719 65.7993 11.9311 65.7993 14.0453C65.7993 15.9245 66.8968 17.3926 69.1311 17.3926C70.9734 17.3926 72.1297 16.1594 72.1297 14.241C72.1297 12.2443 71.0909 10.9719 69.0527 10.9719Z" fill="white"/>
<path d="M76.2604 11.6179C76.2604 7.56585 77.2795 4.47295 81.1993 4.47295C85.0994 4.47295 86.1185 7.56585 86.1185 11.6179C86.1185 15.7287 85.0994 18.8412 81.1993 18.8412C77.2795 18.8412 76.2604 15.7287 76.2604 11.6179ZM84.3546 11.6179C84.3546 8.68164 83.9823 6.0977 81.1993 6.0977C78.3967 6.0977 78.0243 8.68164 78.0243 11.6179C78.0243 14.6717 78.3967 17.2165 81.1993 17.2165C83.9823 17.2165 84.3546 14.6717 84.3546 11.6179Z" fill="white"/>
<defs>
<linearGradient id="paint0_linear_3703_71594" x1="0" y1="14" x2="89" y2="14" gradientUnits="userSpaceOnUse">
<stop stop-color="#EE312E"/>
<stop offset="1" stop-color="#ED8322"/>
</linearGradient>
</defs>
</svg>
